<svg width="512" height="512" viewBox="0 0 512 512" fill="none" xmlns="http://www.w3.org/2000/svg">
  <rect width="512" height="512" rx="128" fill="#10B981"/>
  <path d="M256 96C220.654 96 192 124.654 192 160C192 195.346 220.654 224 256 224C291.346 224 320 195.346 320 160C320 124.654 291.346 96 256 96Z" fill="white"/>
  <path d="M256 240C185.307 240 128 297.307 128 368V416H384V368C384 297.307 326.693 240 256 240Z" fill="white"/>
  <path d="M160 160L144 176L128 160L144 144L160 160Z" fill="white"/>
  <path d="M384 160L368 176L352 160L368 144L384 160Z" fill="white"/>
  <path d="M256 80L272 96L256 112L240 96L256 80Z" fill="white"/>
  <path d="M256 432L272 448L256 464L240 448L256 432Z" fill="white"/>
  <circle cx="200" cy="200" r="8" fill="white"/>
  <circle cx="312" cy="200" r="8" fill="white"/>
  <circle cx="256" cy="320" r="12" fill="#10B981"/>
</svg>
